<svg id="Outline" xmlns="http://www.w3.org/2000/svg" viewBox="0 0 841.89 595.28"><defs><style>.cls-1{fill:#fff;}</style></defs><path class="cls-1" d="M328.44,480.78l-7-10.06h-7.69v10.06h-8.35v-36.1h15.62c9.65,0,15.68,5,15.68,13.1a11.73,11.73,0,0,1-7.42,11.39l8.09,11.61Zm-7.84-29.3h-6.81v12.59h6.81c5.11,0,7.68-2.38,7.68-6.29S325.71,451.48,320.6,451.48Z"/><path class="cls-1" d="M341.08,462.73c0-10.73,8.35-18.67,19.75-18.67s19.75,7.89,19.75,18.67-8.4,18.66-19.75,18.66S341.08,473.45,341.08,462.73Zm31,0c0-6.86-4.84-11.56-11.29-11.56s-11.29,4.7-11.29,11.56,4.84,11.55,11.29,11.55S372.12,469.58,372.12,462.73Z"/><path class="cls-1" d="M410.14,473H393.38l-3.2,7.74h-8.56l16.09-36.1H406l16.14,36.1h-8.76Zm-2.63-6.34-5.73-13.82-5.72,13.82Z"/><path class="cls-1" d="M440.47,444.68h8.35V474h18.1v6.81H440.47Z"/><path class="cls-1" d="M475.75,451.48H464.2v-6.8h31.45v6.8H484.1v29.3h-8.35Z"/><path class="cls-1" d="M500.15,444.68h16.4c11.8,0,19.9,7.11,19.9,18.05s-8.1,18-19.9,18h-16.4Zm16,29.24c7.17,0,11.86-4.28,11.86-11.19s-4.69-11.2-11.86-11.2H508.5v22.39Z"/><path class="cls-1" d="M308.83,501.63h-2.41V501H312v.63h-2.41v6.22h-.72Z"/><path class="cls-1" d="M317.79,507.85l-1.56-2.2a4.8,4.8,0,0,1-.55,0h-1.84v2.17h-.72V501h2.56c1.74,0,2.8.88,2.8,2.35a2.12,2.12,0,0,1-1.57,2.15l1.68,2.35Zm0-4.5c0-1.1-.73-1.72-2.1-1.72h-1.82v3.43h1.82C317,505.06,317.76,504.43,317.76,503.35Z"/><path class="cls-1" d="M324.49,506h-3.81l-.83,1.83h-.75l3.13-6.85H323l3.13,6.85h-.76Zm-.26-.58-1.65-3.69-1.64,3.69Z"/><path class="cls-1" d="M332.94,501v6.85h-.59l-4.41-5.56v5.56h-.72V501h.6l4.41,5.56V501Z"/><path class="cls-1" d="M334.52,507l.29-.56a3.36,3.36,0,0,0,2.26.83c1.28,0,1.84-.53,1.84-1.21,0-1.88-4.22-.72-4.22-3.26,0-1,.78-1.88,2.53-1.88a3.88,3.88,0,0,1,2.12.61l-.24.58a3.49,3.49,0,0,0-1.88-.57c-1.26,0-1.81.56-1.81,1.24,0,1.88,4.21.75,4.21,3.24,0,1-.8,1.87-2.55,1.87A3.72,3.72,0,0,1,334.52,507Z"/><path class="cls-1" d="M341.93,501.63v2.69h3.54v.62h-3.54v2.91h-.73V501h4.7v.63Z"/><path class="cls-1" d="M346.71,504.43a3.6,3.6,0,1,1,3.6,3.48A3.45,3.45,0,0,1,346.71,504.43Zm6.47,0a2.88,2.88,0,1,0-2.87,2.84A2.77,2.77,0,0,0,353.18,504.43Z"/><path class="cls-1" d="M360.21,507.85l-1.56-2.2a4.93,4.93,0,0,1-.55,0h-1.84v2.17h-.73V501h2.57c1.74,0,2.8.88,2.8,2.35a2.12,2.12,0,0,1-1.57,2.15l1.67,2.35Zm0-4.5c0-1.1-.72-1.72-2.09-1.72h-1.82v3.43h1.82C359.45,505.06,360.17,504.43,360.17,503.35Z"/><path class="cls-1" d="M369.73,501v6.85H369v-5.48L366.34,507H366l-2.69-4.58v5.45h-.7V501h.6l3,5.08,2.94-5.08Z"/><path class="cls-1" d="M372,501h.72v6.85H372Z"/><path class="cls-1" d="M380.65,501v6.85h-.6l-4.4-5.56v5.56h-.73V501h.6l4.42,5.56V501Z"/><path class="cls-1" d="M387.71,504.43h.7V507a3.79,3.79,0,0,1-2.52.87,3.49,3.49,0,1,1,0-7,3.37,3.37,0,0,1,2.55,1l-.45.46a2.9,2.9,0,1,0-2.08,4.88,3,3,0,0,0,1.79-.53Z"/><path class="cls-1" d="M394.36,501.63H392V501h5.54v.63h-2.41v6.22h-.72Z"/><path class="cls-1" d="M403.49,507.23v.62h-4.84V501h4.69v.63h-4v2.43h3.54v.62h-3.54v2.55Z"/><path class="cls-1" d="M412.44,507.85l-1.56-2.2a4.93,4.93,0,0,1-.55,0h-1.84v2.17h-.73V501h2.57c1.74,0,2.8.88,2.8,2.35a2.12,2.12,0,0,1-1.57,2.15l1.68,2.35Zm0-4.5c0-1.1-.72-1.72-2.09-1.72h-1.82v3.43h1.82C411.68,505.06,412.4,504.43,412.4,503.35Z"/><path class="cls-1" d="M419.69,507.23v.62h-4.85V501h4.7v.63h-4v2.43h3.54v.62h-3.54v2.55Z"/><path class="cls-1" d="M420.75,504.43a3.6,3.6,0,1,1,3.6,3.48A3.45,3.45,0,0,1,420.75,504.43Zm6.47,0a2.88,2.88,0,1,0-2.87,2.84A2.77,2.77,0,0,0,427.22,504.43Z"/><path class="cls-1" d="M439.26,501v6.85h-.7v-5.48L435.87,507h-.34l-2.69-4.58v5.45h-.7V501h.6l3,5.08,3-5.08Z"/><path class="cls-1" d="M445.79,506H442l-.82,1.83h-.75l3.13-6.85h.71l3.14,6.85h-.77Zm-.26-.58-1.65-3.69-1.64,3.69Zm-.13-5.37h-3v-.46h3Z"/><path class="cls-1" d="M447.81,504.43a3.6,3.6,0,1,1,3.6,3.48A3.45,3.45,0,0,1,447.81,504.43Zm6.47,0a2.88,2.88,0,1,0-2.87,2.84A2.77,2.77,0,0,0,454.28,504.43Z"/><path class="cls-1" d="M461.31,507.85l-1.56-2.2a4.8,4.8,0,0,1-.55,0h-1.84v2.17h-.72V501h2.56c1.74,0,2.8.88,2.8,2.35a2.12,2.12,0,0,1-1.57,2.15l1.68,2.35Zm0-4.5c0-1.1-.73-1.72-2.1-1.72h-1.82v3.43h1.82C460.55,505.06,461.28,504.43,461.28,503.35Z"/><path class="cls-1" d="M463.72,501h.72v6.85h-.72Z"/><path class="cls-1" d="M473.92,507.85l-1.57-2.2a4.68,4.68,0,0,1-.55,0H470v2.17h-.72V501h2.56c1.75,0,2.8.88,2.8,2.35A2.11,2.11,0,0,1,473,505.5l1.67,2.35Zm0-4.5c0-1.1-.72-1.72-2.1-1.72H470v3.43h1.82C473.16,505.06,473.88,504.43,473.88,503.35Z"/><path class="cls-1" d="M481.17,507.23v.62h-4.85V501H481v.63h-4v2.43h3.54v.62h-3.54v2.55Z"/><path class="cls-1" d="M482.22,507l.28-.56a3.36,3.36,0,0,0,2.26.83c1.28,0,1.84-.53,1.84-1.21,0-1.88-4.22-.72-4.22-3.26,0-1,.79-1.88,2.53-1.88a3.88,3.88,0,0,1,2.12.61l-.24.58a3.46,3.46,0,0,0-1.88-.57c-1.25,0-1.81.56-1.81,1.24,0,1.88,4.22.75,4.22,3.24,0,1-.81,1.87-2.56,1.87A3.69,3.69,0,0,1,482.22,507Z"/><path class="cls-1" d="M488.29,504.43a3.6,3.6,0,1,1,3.6,3.48A3.45,3.45,0,0,1,488.29,504.43Zm6.47,0a2.88,2.88,0,1,0-2.87,2.84A2.77,2.77,0,0,0,494.76,504.43Z"/><path class="cls-1" d="M497.05,504.93V501h.73v3.9c0,1.62.76,2.37,2.09,2.37s2.11-.75,2.11-2.37V501h.7v3.93c0,2-1.05,3-2.81,3S497.05,506.89,497.05,504.93Z"/><path class="cls-1" d="M509.55,507.85l-1.57-2.2a4.68,4.68,0,0,1-.55,0h-1.84v2.17h-.72V501h2.56c1.75,0,2.8.88,2.8,2.35a2.11,2.11,0,0,1-1.56,2.15l1.67,2.35Zm0-4.5c0-1.1-.72-1.72-2.1-1.72h-1.82v3.43h1.82C508.79,505.06,509.51,504.43,509.51,503.35Z"/><path class="cls-1" d="M511.34,504.43a3.45,3.45,0,0,1,3.6-3.49,3.29,3.29,0,0,1,2.5,1l-.46.46a2.7,2.7,0,0,0-2-.81,2.84,2.84,0,1,0,0,5.68,2.68,2.68,0,0,0,2-.83l.46.46a3.31,3.31,0,0,1-2.51,1A3.44,3.44,0,0,1,511.34,504.43Z"/><path class="cls-1" d="M519,501h.73v6.85H519Z"/><path class="cls-1" d="M527.68,501v6.85h-.6l-4.41-5.56v5.56H522V501h.6l4.41,5.56V501Z"/><path class="cls-1" d="M534.74,504.43h.69V507a3.74,3.74,0,0,1-2.51.87,3.49,3.49,0,1,1,0-7,3.34,3.34,0,0,1,2.54,1l-.45.46a2.76,2.76,0,0,0-2.06-.8,2.84,2.84,0,1,0,0,5.68,3,3,0,0,0,1.79-.53Z"/><path class="cls-1" d="M493.79,246.86c0-.51,0-1,0-1.52h0c-.16-39-6.61-74.62-17.22-102.13a87.32,87.32,0,0,1-10.72-.84l.07-.11c1.83-2.79,3.14-5.66,4.78-8.73q.46-.89,1-1.8h-.05l-2.29-.38c-3.07-.49-5.87-.89-9.12-1.27a.28.28,0,0,0,.05-.09,63.92,63.92,0,0,0,3.91-7c.48-.95.93-1.91,1.38-2.87h0c-1.06,0-2.1-.07-3.15-.07-2.72,0-5.37.08-8.15.13a.26.26,0,0,0,0-.08c.93-2.46,2.24-5.16,3.4-7.72.39-.87.76-1.7,1.1-2.52h0c-.78.07-1.6.16-2.45.27h0c-2.2.3-4.53.71-6.59.87a10.66,10.66,0,0,1-3.52-.12s0,0,0,0A70.55,70.55,0,0,1,450,100v0a50.32,50.32,0,0,0-13.78-9.46,108.43,108.43,0,0,0-22.89,117.59c19.33-9,39.15-25.81,41.55-47.65-8.71-.45-18.49.95-25.74,6-2.82,2-6.16,5.83-4.95,9.65a3.45,3.45,0,0,0,2.88,2.53h.15c-1.31-3,.28-7.48,4.63-7.51,9.93-.07,10.32,12.05,2.75,16.24s-17.81,0-20.19-8.23c-2.68-9.3,3.36-17.94,11.1-22.48,8.65-5.08,19.23-7,29.2-6.52-.05-.3-.07-.6-.12-.91-1.74-10.68-10.48-25-23.43-21.49-2.7.73-5.4,2.39-6.21,5.24-.42,1.51-.36,4.71,1.36,5.58a1.36,1.36,0,0,0,1.06,0c-2.29-4,2.24-10,7-7,5,3.18,7.07,9.17,2.3,13.67-3.69,3.48-10.48,4.84-15,2.36-5.71-3.11-8-10.18-6.79-16.31,1.48-7.41,8.12-12.59,15.36-13.86,15.58-2.74,28.34,9.46,32.87,23.35,11,33.64-16.79,63.24-45.14,76.34l-.2.08a88.72,88.72,0,0,0,9.17,13.62c5.43,6.61,12.3,12.32,20.81,14.3,7.83,1.83,17-.25,21.77-7.13,3.84-5.51,3.46-15-3-18.43a10.61,10.61,0,0,0-9.79-.07,6.62,6.62,0,0,0-3.05,3.26c-.34.94-.58,2.62.72,2.26,6.36-1.74,8.73,8.22,2.38,10a10.86,10.86,0,0,1-13.17-7.49c-1.54-5.42,1-11.25,5.13-14.82,8.28-7.18,21.88-5.51,28.62,2.91,6.59,8.22,6.3,20.45.15,28.8-6.49,8.82-17.87,12.75-28.53,11.33-24.13-3.23-38.68-27.6-46.49-48.37-15.42-41-6.05-87.55,22.6-119.92-1-.1-2.06-.16-3.11-.16-10,0-19.43,4.5-28.06,12.62v0a70.55,70.55,0,0,1,3.87,10.8s0,0,0,0a10.66,10.66,0,0,1-3.52.12c-2.06-.16-4.39-.57-6.59-.87h0c-.85-.11-1.67-.2-2.45-.27h0c.34.82.71,1.65,1.1,2.52,1.16,2.56,2.47,5.26,3.4,7.72a.26.26,0,0,0,0,.08c-2.78-.05-5.43-.14-8.15-.13-1,0-2.09,0-3.15.07h0c.45,1,.9,1.92,1.38,2.87a63.92,63.92,0,0,0,3.91,7,.28.28,0,0,0,.05.09c-3.25.38-6.05.78-9.12,1.27l-2.29.38h0q.52.92,1,1.8c1.64,3.07,3,5.94,4.78,8.73l.07.11a87.32,87.32,0,0,1-10.72.84c-10.61,27.51-17.06,63.15-17.23,102.13h0c0,.51,0,1,0,1.53h0v0c0,1.37,0,2.74,0,4.1l0,1.52c0,.86,0,1.72,0,2.58s.05,1.84.08,2.76c0,.43,0,.87,0,1.3,0,1.15.09,2.29.14,3.43,0,.2,0,.4,0,.6,1.16,25.46,5,49.15,10.94,69.64h0c.29,1,.58,2,.88,3,0,.08.05.17.08.25.27.92.56,1.82.85,2.72,0,.16.09.31.14.46.26.83.54,1.65.81,2.46.07.22.14.45.22.67.25.74.5,1.47.76,2.19l.3.88c.23.65.46,1.28.7,1.92.13.36.26.74.4,1.11l.63,1.64c.17.44.33.88.5,1.31s.37.93.56,1.39.4,1,.61,1.52.31.75.47,1.12l.72,1.71.39.9.84,1.88a.37.37,0,0,0,.05.11h0q2.76,6.07,5.8,11.47h0s0,0,0,0h0c7.2,12.77,15.53,22.53,24.61,28.42h0l.2.13c.37.24.75.46,1.12.69l.66.4,1.12.62.68.37,1.13.55c.23.11.45.23.68.33.41.19.82.36,1.24.53l.52.23.05,0c.74.29,1.48.55,2.23.8l.24.08.36.1c.6.19,1.21.36,1.82.51l.36.1.16,0c.37.09.75.15,1.13.23a108.48,108.48,0,0,0,16.82-121.35c-18.66,10.34-37.27,28.47-38.15,50.43,8.72-.16,18.38-2.24,25.26-7.83,2.68-2.18,5.73-6.24,4.27-10a3.46,3.46,0,0,0-3.05-2.32h-.15c1.51,2.93.24,7.49-4.1,7.82-9.9.76-11.13-11.31-3.87-16s17.77-1.25,20.71,6.81c3.32,9.09-2.1,18.13-9.51,23.2-8.27,5.67-18.7,8.29-28.68,8.53.07.3.12.59.19.89,2.48,10.54,12.19,24.21,24.86,19.82,2.64-.92,5.22-2.76,5.83-5.66.32-1.53,0-4.72-1.74-5.47a1.41,1.41,0,0,0-1.07,0c2.56,3.84-1.53,10.14-6.5,7.46-5.22-2.83-7.68-8.65-3.23-13.47,3.44-3.73,10.12-5.57,14.82-3.41,5.92,2.71,8.7,9.61,7.91,15.8-1,7.5-7.23,13.13-14.36,14.9-15.35,3.82-28.93-7.47-34.41-21-13.3-32.8,12.36-64.26,39.73-79.3l.19-.09a88.27,88.27,0,0,0-10.08-12.94c-5.88-6.23-13.13-11.44-21.76-12.83-7.93-1.28-16.91,1.43-21.22,8.62-3.45,5.76-2.41,15.19,4.29,18.18a10.62,10.62,0,0,0,9.77-.61,6.66,6.66,0,0,0,2.82-3.47c.27-1,.39-2.65-.87-2.2-6.23,2.18-9.29-7.59-3.08-9.77A10.87,10.87,0,0,1,400.76,267c1.92,5.3-.23,11.3-4.09,15.14-7.76,7.74-21.44,7-28.75-.92-7.14-7.74-7.7-20-2.15-28.72,5.86-9.24,16.94-14,27.68-13.28,24.3,1.55,40.5,24.85,49.74,45,18.25,39.86,12.08,87.06-14.35,121.35.42-.08.83-.17,1.24-.27h0c.46-.11.92-.25,1.38-.38l1-.31h0c.64-.21,1.28-.45,1.92-.69l.53-.21h0c.67-.28,1.34-.57,2-.89h0l.6-.28h0c.64-.31,1.28-.65,1.91-1h0l.27-.14h0c.74-.41,1.47-.86,2.2-1.33l.16-.1h0c9.07-5.89,17.41-15.65,24.61-28.42h0s0,0,0,0h0q3-5.39,5.8-11.47h0l.05-.12c.28-.61.55-1.23.82-1.85l0,0,.39-.89h0c.24-.56.47-1.12.71-1.69l0,0c.15-.37.31-.73.46-1.1h0l.6-1.49,0,0,.55-1.38h0c.16-.43.33-.86.49-1.28l0-.05.61-1.62h0l.39-1.08v0c.23-.63.47-1.26.69-1.9h0c.1-.28.19-.57.29-.85l0,0,.75-2.18h0l.21-.64v0l.81-2.45h0c0-.14.09-.28.13-.42l0,0,.84-2.71h0a1.87,1.87,0,0,1,.07-.22v0c.38-1.24.74-2.49,1.1-3.75.06-.19.11-.38.16-.57.33-1.13.64-2.28,1-3.43,0-.18.09-.36.14-.54,1.05-4,2-8.06,2.93-12.24.05-.26.1-.51.16-.77.24-1.14.47-2.28.7-3.44.06-.28.11-.56.17-.84q.38-1.9.72-3.84c0-.12.05-.24.07-.36.26-1.46.52-2.94.76-4.42l0-.17c.22-1.35.43-2.71.64-4.08l.15-1.06c.17-1.1.32-2.2.47-3.31.06-.4.11-.81.17-1.21.15-1.16.3-2.33.44-3.5,0-.31.07-.61.11-.91.18-1.5.34-3,.5-4.52l0-.3c.14-1.37.27-2.75.4-4.14,0-.43.07-.87.11-1.31.1-1.08.18-2.15.27-3.24,0-.49.07-1,.11-1.47.08-1.11.15-2.22.22-3.33,0-.42.06-.84.08-1.27.09-1.53.18-3.08.25-4.63h0a1.41,1.41,0,0,1,0-.2c0-.17,0-.33,0-.5,0-1.1.09-2.21.13-3.32h0c0-.23,0-.47,0-.7s0-.38,0-.58c0-.92.05-1.84.07-2.77h0c0-.55,0-1.1,0-1.65,0-.22,0-.44,0-.66,0-.59,0-1.18,0-1.78h0c0-.72,0-1.44,0-2.16s0-1.31,0-2Z"/></svg>